<svg width="20" height="23" viewBox="0 0 20 23" fill="none" xmlns="http://www.w3.org/2000/svg">
<path fill-rule="evenodd" clip-rule="evenodd" d="M10 0C10.3788 0 10.7421 0.150483 11.01 0.418344C11.2778 0.686204 11.4283 1.0495 11.4283 1.42831V17.9768L17.5586 11.8436C17.6914 11.7108 17.8491 11.6054 18.0226 11.5336C18.1961 11.4617 18.3821 11.4247 18.5699 11.4247C18.7577 11.4247 18.9437 11.4617 19.1172 11.5336C19.2907 11.6054 19.4483 11.7108 19.5811 11.8436C19.7139 11.9764 19.8193 12.134 19.8911 12.3075C19.963 12.4811 20 12.667 20 12.8548C20 13.0426 19.963 13.2286 19.8911 13.4021C19.8193 13.5756 19.7139 13.7333 19.5811 13.8661L11.0112 22.436C10.8786 22.569 10.721 22.6745 10.5474 22.7465C10.3739 22.8185 10.1879 22.8556 10 22.8556C9.81213 22.8556 9.6261 22.8185 9.45257 22.7465C9.27905 22.6745 9.12143 22.569 8.98875 22.436L0.418872 13.8661C0.286073 13.7333 0.180732 13.5756 0.108861 13.4021C0.0369912 13.2286 0 13.0426 0 12.8548C0 12.667 0.0369912 12.4811 0.108861 12.3075C0.180732 12.134 0.286073 11.9764 0.418872 11.8436C0.687071 11.5754 1.05083 11.4247 1.43012 11.4247C1.61792 11.4247 1.80389 11.4617 1.9774 11.5336C2.15091 11.6054 2.30857 11.7108 2.44136 11.8436L8.57169 17.9768V1.42831C8.57169 1.0495 8.72217 0.686204 8.99003 0.418344C9.25789 0.150483 9.62119 0 10 0Z" fill="#FFB100"/>
</svg>
